<?xml version="1.0" encoding="UTF-8"?>
<svg width="4px" height="16px" viewBox="0 0 4 16" version="1.1" xmlns="http://www.w3.org/2000/svg" xmlns:xlink="http://www.w3.org/1999/xlink">
    <!-- Generator: Sketch 49.3 (51167) - http://www.bohemiancoding.com/sketch -->
    <title>4-Free/more</title>
    <desc>Created with Sketch.</desc>
    <defs>
        <polygon id="path-1" points="0 24 24 24 24 1.13686838e-13 0 1.13686838e-13"></polygon>
        <path d="M12.00048,7.9188 C10.93968,7.9188 10.08048,7.0596 10.08048,5.9988 C10.08048,4.938 10.93968,4.0788 12.00048,4.0788 C13.06128,4.0788 13.92048,4.938 13.92048,5.9988 C13.92048,7.0596 13.06128,7.9188 12.00048,7.9188 Z M12.00048,13.91976 C10.93968,13.91976 10.08048,13.06056 10.08048,11.99976 C10.08048,10.93896 10.93968,10.07976 12.00048,10.07976 C13.06128,10.07976 13.92048,10.93896 13.92048,11.99976 C13.92048,13.06056 13.06128,13.91976 12.00048,13.91976 Z M11.99952,19.9212 C10.93872,19.9212 10.07952,19.062 10.07952,18.0012 C10.07952,16.9404 10.93872,16.0812 11.99952,16.0812 C13.06032,16.0812 13.91952,16.9404 13.91952,18.0012 C13.91952,19.062 13.06032,19.9212 11.99952,19.9212 Z" id="path-3"></path>
    </defs>
    <g id="Page-1" stroke="none" stroke-width="1" fill="none" fill-rule="evenodd">
        <g id="Artboard" transform="translate(-1106.000000, -24.000000)">
            <g id="Header">
                <g id="4-Free/more" transform="translate(1108.000000, 32.000000) rotate(90.000000) translate(-1108.000000, -32.000000) translate(1096.000000, 20.000000)">
                    <g id="icon-more" transform="translate(12.000000, 12.000000) rotate(-90.000000) translate(-12.000000, -12.000000) ">
                        <mask id="mask-2" fill="white">
                            <use xlink:href="#path-1"></use>
                        </mask>
                        <g></g>
                        <mask id="mask-4" fill="white">
                            <use xlink:href="#path-3"></use>
                        </mask>
                        <use fill="#A6A6A6" xlink:href="#path-3"></use>
                        <g id="color/G20" mask="url(#mask-4)" fill="#FFFFFF">
                            <rect id="color" x="0" y="0" width="24" height="24"></rect>
                        </g>
                    </g>
                </g>
            </g>
        </g>
    </g>
</svg>